PathFileType	4	(x/y/z)	S10_PSF_T07
DataRate	CameraRate	NumFrames	NumMarkers	Units	OrigDataRate	OrigDataStartFrame	OrigNumFrames
240	240	4	51	mm	240	1	431
Frame#	Time	Sternum			R.Acromium			L.Acromium			Top.Head			R.ASIS			L.ASIS			R.PSIS			L.PSIS			R.Great.Tro			L.Great.Tro			R.Iliac.Crest			L.Iliac.Crest			V.Sacral			R.Thigh.Upper.Post			R.Thigh.Lower.Ant			R.Thigh.Lower.Post			R.Thigh.Upper.Ant			R.Knee.Lat			R.Knee.Med			R.Shank.Upper.Post			R.Shank.Lower.Ant			R.Shank.Lower.Post			R.Shank.Upper.Ant			R.Ankle.Lat			R.Ankle.Med			R.Heel.Upper			R.Heel.Med			R.Heel.Lat			R.Toe.Lat			R.Toe.Med			R.Toe.Tip			L.Thigh.Upper.Post			L.Thigh.Lower.Ant			L.Thigh.Lower.Post			L.Thigh.Upper.Ant			L.Knee.Lat			L.Knee.Med			L.Shank.Upper.Post			L.Shank.Lower.Ant			L.Shank.Lower.Post			L.Shank.Upper.Ant			L.Ankle.Lat			L.Ankle.Med			L.Heel.Upper			L.Heel.Med			L.Heel.Lat			L.Toe.Lat			L.Toe.Med			L.Toe.Tip			Cervical.Spine			Back			
		X1	Y1	Z1	X2	Y2	Z2	X3	Y3	Z3	X4	Y4	Z4	X5	Y5	Z5	X6	Y6	Z6	X7	Y7	Z7	X8	Y8	Z8	X9	Y9	Z9	X10	Y10	Z10	X11	Y11	Z11	X12	Y12	Z12	X13	Y13	Z13	X14	Y14	Z14	X15	Y15	Z15	X16	Y16	Z16	X17	Y17	Z17	X18	Y18	Z18	X19	Y19	Z19	X20	Y20	Z20	X21	Y21	Z21	X22	Y22	Z22	X23	Y23	Z23	X24	Y24	Z24	X25	Y25	Z25	X26	Y26	Z26	X27	Y27	Z27	X28	Y28	Z28	X29	Y29	Z29	X30	Y30	Z30	X31	Y31	Z31	X32	Y32	Z32	X33	Y33	Z33	X34	Y34	Z34	X35	Y35	Z35	X36	Y36	Z36	X37	Y37	Z37	X38	Y38	Z38	X39	Y39	Z39	X40	Y40	Z40	X41	Y41	Z41	X42	Y42	Z42	X43	Y43	Z43	X44	Y44	Z44	X45	Y45	Z45	X46	Y46	Z46	X47	Y47	Z47	X48	Y48	Z48	X49	Y49	Z49	X50	Y50	Z50	X51	Y51	Z51	

1	0	NaN	NaN	NaN	-1419.7	1406.9	503.4	-1491.6	1425.1	210.3	-1494.2	1718.3	370.9	NaN	NaN	NaN	NaN	NaN	NaN	-1592.9	998.03	379.45	-1593.6	1008.3	298.75	-1463.8	901.36	534.58	-1457.4	944.56	169.39	-1483.2	1053.2	510.88	-1479.1	1079.4	209.17	-1611.8	967.62	342.45	NaN	NaN	NaN	-1510.3	606.36	494.61	NaN	NaN	NaN	NaN	NaN	NaN	NaN	NaN	NaN	-1616.8	516.27	342.87	-1770.1	328.28	471.22	-1724.8	247.64	451.71	-1799.1	260.17	464.24	-1694	314.06	458.64	NaN	NaN	NaN	-1819.5	162.96	366.7	-1903	114.44	401.53	-1899.3	86.158	372.37	-1901.4	87.095	433.49	-1733.9	44.786	471.96	-1708.4	49.201	363.5	-1644	56.301	400.23	-1389.4	663.81	171.61	-1289.2	615.89	191.37	-1354.2	576.53	193.06	-1317.1	699.12	169.15	-1288	512.59	203.39	-1277.7	514.45	333.26	-1274	290.23	206.52	-1175.3	235.4	213.43	-1243.2	219	216.44	-1210.4	302.49	206.66	-1167.1	113.19	224.48	-1155	130.5	311.63	-1211.9	60.249	270.96	-1188.4	36.739	304.16	-1194	36.879	241.62	-1027.3	90.962	200.8	NaN	NaN	NaN	-963.64	144.49	259.5	-1529.5	1470.2	383.73	-1617.3	1264.4	385.8
2	0.0041667	NaN	NaN	NaN	-1414.9	1406.6	502.72	-1486.3	1424.7	209.55	-1489.3	1717.9	370.21	NaN	NaN	NaN	NaN	NaN	NaN	-1587.3	997.66	378.91	-1587.9	1007.9	298.2	-1458.3	900.78	533.96	-1451.8	944.22	168.82	-1477.5	1052.8	510.33	-1473.6	1079	208.53	-1606.3	967.24	341.91	NaN	NaN	NaN	-1504.5	605.68	494.15	NaN	NaN	NaN	NaN	NaN	NaN	NaN	NaN	NaN	-1610.8	515.43	342.27	-1765.4	329.03	471.38	-1721.4	248.19	451.68	-1795.6	261.37	464.38	-1690	314.12	458.5	NaN	NaN	NaN	-1816.8	163.97	366.81	-1901.4	117.04	401.71	-1898.1	88.946	372.57	-1900.4	89.773	433.69	-1733.6	44.877	472.03	-1708	49.216	363.61	-1643.8	56.111	400.23	-1383.7	663.51	171.44	-1283.6	615.65	191.93	-1348.7	576.28	193.23	-1311.3	698.91	169.38	-1282.5	512.36	203.68	-1272.7	514.28	333.36	-1270	289.91	206.52	-1172.1	234.4	214	-1239.7	218.44	216.34	-1206.4	301.85	207.16	-1164.5	112.56	224.48	-1152.6	129.42	311.86	-1210.1	61.095	271.38	-1187.4	36.996	304.43	-1193.1	37.358	241.76	-1025.9	87.977	200.74	NaN	NaN	NaN	-960.9	140.35	259.27	-1524.4	1469.8	382.94	-1611.9	1263.9	385.02
3	0.0083333	NaN	NaN	NaN	-1409.9	1406.3	502.01	-1480.7	1424.3	208.76	-1484.2	1717.5	369.49	NaN	NaN	NaN	NaN	NaN	NaN	-1581.5	997.29	378.34	-1582	1007.5	297.62	-1452.6	900.19	533.32	-1445.9	943.88	168.23	-1471.5	1052.3	509.74	-1467.9	1078.6	207.87	-1600.5	966.85	341.34	NaN	NaN	NaN	-1498.4	604.95	493.67	NaN	NaN	NaN	NaN	NaN	NaN	NaN	NaN	NaN	-1604.5	514.53	341.65	-1760.4	329.83	471.52	-1717.8	248.78	451.65	-1791.9	262.64	464.53	-1685.8	314.21	458.35	NaN	NaN	NaN	-1813.9	165.06	366.92	-1899.7	119.82	401.87	-1896.8	91.917	372.76	-1899.3	92.639	433.88	-1733.3	44.988	472.1	-1707.6	49.225	363.71	-1643.6	55.911	400.22	-1377.7	663.22	171.25	-1277.8	615.42	192.46	-1342.9	576.03	193.37	-1305.3	698.71	169.61	-1276.8	512.12	203.95	-1267.5	514.09	333.47	-1265.8	289.6	206.5	-1168.7	233.37	214.59	-1236.1	217.9	216.23	-1202.2	301.2	207.64	-1162	111.92	224.47	-1150	128.3	312.08	-1208.3	61.969	271.79	-1186.4	37.271	304.69	-1192.2	37.859	241.9	-1024.4	84.894	200.68	NaN	NaN	NaN	-958.11	136.04	259.02	-1519.2	1469.3	382.12	-1606.3	1263.3	384.19
4	0.0125	NaN	NaN	NaN	-1404.8	1406	501.28	-1475	1423.9	207.94	-1479	1717.1	368.76	NaN	NaN	NaN	NaN	NaN	NaN	-1575.5	996.92	377.74	-1575.9	1007.1	297	-1446.7	899.58	532.64	-1439.8	943.54	167.64	-1465.3	1051.9	509.13	-1462	1078.3	207.18	-1594.5	966.47	340.73	NaN	NaN	NaN	-1492	604.2	493.17	NaN	NaN	NaN	NaN	NaN	NaN	NaN	NaN	NaN	-1597.8	513.58	341.02	-1755.2	330.67	471.65	-1714	249.41	451.62	-1787.9	263.96	464.67	-1681.3	314.31	458.19	NaN	NaN	NaN	-1810.9	166.26	367.04	-1897.8	122.78	402.03	-1895.4	95.067	372.93	-1898.1	95.694	434.04	-1732.9	45.123	472.17	-1707.1	49.23	363.82	-1643.4	55.7	400.21	-1371.6	662.94	171.06	-1271.9	615.19	192.97	-1337	575.79	193.48	-1299.1	698.52	169.83	-1270.9	511.89	204.19	-1262.1	513.89	333.57	-1261.5	289.31	206.45	-1165.2	232.32	215.17	-1232.3	217.37	216.09	-1197.8	300.55	208.11	-1159.4	111.27	224.44	-1147.3	127.17	312.29	-1206.4	62.864	272.18	-1185.3	37.564	304.94	-1191.2	38.379	242.04	-1022.9	81.739	200.61	NaN	NaN	NaN	-955.27	131.59	258.75	-1513.7	1468.9	381.26	-1600.6	1262.7	383.32
